<svg width="100" height="39" viewBox="0 0 100 39" fill="none" xmlns="http://www.w3.org/2000/svg">
<path d="M18.0224 4.86704C16.9848 5.0876 16.0772 5.71136 15.4994 6.60107C14.9216 7.49079 14.7209 8.57359 14.9415 9.61128L12.007 10.235C11.2288 10.4004 10.5481 10.8682 10.1148 11.5355C9.68143 12.2028 9.53092 13.0149 9.69634 13.7932L10.3201 16.7276C9.28239 16.9482 8.37483 17.5719 7.79704 18.4617C7.21925 19.3514 7.01857 20.4342 7.23913 21.4719C7.4597 22.5096 8.08345 23.4171 8.97317 23.9949C9.86288 24.5727 10.9457 24.7734 11.9834 24.5528L12.6071 27.4873C12.7725 28.2655 13.2403 28.9462 13.9076 29.3795C14.5749 29.8129 15.387 29.9634 16.1653 29.798L19.0997 29.1742C19.3203 30.2119 19.944 31.1195 20.8338 31.6973C21.7235 32.2751 22.8063 32.4757 23.844 32.2552C24.8816 32.0346 25.7892 31.4109 26.367 30.5211C26.9448 29.6314 27.1455 28.5486 26.9249 27.5109L29.8594 26.8872C30.6376 26.7218 31.3183 26.254 31.7516 25.5867C32.185 24.9194 32.3355 24.1073 32.1701 23.329L31.1305 18.4383L29.1742 18.8541C28.6554 18.9644 28.114 18.864 27.6691 18.5752C27.2242 18.2863 26.9124 17.8325 26.8021 17.3136C26.6918 16.7948 26.7921 16.2534 27.081 15.8085C27.3699 15.3637 27.8237 15.0518 28.3426 14.9415L30.2989 14.5257L29.2593 9.63495C29.0939 8.85669 28.6261 8.17602 27.9588 7.74268C27.2915 7.30934 26.4794 7.15882 25.7011 7.32425L22.7667 7.94798C22.5461 6.9103 21.9224 6.00274 21.0326 5.42495C20.1429 4.84716 19.0601 4.64647 18.0224 4.86704Z" fill="url(#paint0_linear_2_74)"/>
<path d="M17.007 26.8284C16.8779 26.8561 16.7564 26.8331 16.6424 26.7593C16.5284 26.6856 16.4576 26.5842 16.4299 26.4551L13.9923 15.0855C13.9646 14.9564 13.9876 14.8349 14.0614 14.7209C14.1351 14.6069 14.2365 14.5361 14.3656 14.5084L23.236 12.6066C23.3651 12.5789 23.4866 12.602 23.6006 12.6757C23.7146 12.7495 23.7854 12.8509 23.8131 12.9799L24.3867 15.6551C24.4143 15.7842 24.3913 15.9057 24.3175 16.0197C24.2438 16.1337 24.1424 16.2046 24.0133 16.2322L18.9797 17.3114L19.259 18.6138L23.9406 17.6101C24.0696 17.5824 24.1912 17.6055 24.3052 17.6792C24.4191 17.7529 24.49 17.8543 24.5176 17.9834L25.0874 20.641C25.1151 20.7701 25.0921 20.8916 25.0183 21.0056C24.9446 21.1196 24.8432 21.1904 24.7141 21.2181L20.0325 22.2218L20.7419 25.5306C20.7696 25.6597 20.7465 25.7812 20.6728 25.8952C20.5991 26.0092 20.4976 26.08 20.3686 26.1077L17.007 26.8284ZM19.2598 14.3243C19.0435 14.3462 18.8864 14.386 18.7883 14.4438C18.6903 14.5017 18.6144 14.6345 18.5608 14.8424C18.5072 15.0502 18.5152 15.2019 18.5848 15.2975C18.6543 15.393 18.7805 15.4948 18.9632 15.6029C19.1602 15.7202 19.3177 15.7969 19.4359 15.8329C19.5541 15.869 19.7016 15.8128 19.8784 15.6644C20.0645 15.5018 20.1566 15.3593 20.155 15.237C20.1533 15.1146 20.1038 14.9411 20.0066 14.7165C19.9286 14.5246 19.8364 14.4093 19.7299 14.3708C19.621 14.3205 19.4643 14.305 19.2598 14.3243ZM15.2294 15.7039C15.2118 15.6218 15.198 15.5572 15.1879 15.5103C15.1778 15.4634 15.1292 15.437 15.042 15.4311C14.8795 15.4169 14.7709 15.4831 14.7165 15.6298C14.6754 15.7245 14.6553 15.8024 14.6561 15.8636C14.6545 15.9131 14.6918 15.9726 14.7681 16.0421C14.9156 16.1578 15.0652 16.1686 15.2169 16.0748C15.2915 16.0219 15.3166 15.9675 15.2923 15.9113C15.268 15.8552 15.247 15.786 15.2294 15.7039ZM22.7961 13.9896C22.7375 14.0021 22.7061 14.0273 22.7019 14.065C22.6977 14.1027 22.6889 14.1475 22.6755 14.1995C22.6646 14.2632 22.6512 14.3152 22.6353 14.3554C22.6193 14.3956 22.6399 14.4342 22.6969 14.4711C22.7539 14.5079 22.7987 14.5167 22.8314 14.4974C22.8616 14.4664 22.9093 14.4316 22.9747 14.3931C23.0535 14.3026 23.0782 14.2175 23.0489 14.1379C23.0002 14.0256 22.916 13.9761 22.7961 13.9896ZM21.4724 14.5127C21.4263 14.4121 21.3668 14.3635 21.2939 14.3669C21.2327 14.3677 21.1422 14.3748 21.0223 14.3883C20.9259 14.3967 20.8568 14.4176 20.8149 14.4511C20.773 14.4847 20.7386 14.5534 20.7118 14.6573C20.6942 14.747 20.7022 14.8128 20.7357 14.8547C20.7693 14.8966 20.8288 14.9452 20.9143 15.0005C21.0232 15.0508 21.1062 15.0944 21.1632 15.1312C21.2294 15.1539 21.309 15.1245 21.4021 15.0432C21.4926 14.9502 21.5433 14.8718 21.5541 14.8081C21.5625 14.7327 21.5353 14.6342 21.4724 14.5127ZM16.2993 15.7138C16.2188 15.682 16.1526 15.6594 16.1006 15.646C16.0604 15.63 16.0172 15.6577 15.9711 15.729C15.9133 15.8027 15.8777 15.8656 15.8643 15.9175C15.8509 15.9695 15.8777 16.0374 15.9448 16.1212C15.9976 16.1958 16.0475 16.228 16.0944 16.218C16.1531 16.2054 16.2222 16.1844 16.3018 16.1551C16.3814 16.1258 16.4376 16.1014 16.4703 16.0822C16.5004 16.0512 16.5185 15.9921 16.5243 15.9049C16.5209 15.832 16.4992 15.7876 16.4589 15.7716C16.4187 15.7557 16.3655 15.7365 16.2993 15.7138ZM22.9069 15.1072L22.7963 15.0204L22.6844 15.0996L22.6517 15.2907L22.8705 15.2807L22.9069 15.1072ZM18.0908 16.0845C17.9659 16.0745 17.8779 16.0933 17.8268 16.1411C17.7756 16.1889 17.7308 16.266 17.6923 16.3724C17.647 16.5049 17.6261 16.6075 17.6294 16.6805C17.6303 16.7416 17.6818 16.8104 17.7841 16.8866C17.8746 16.9654 17.9551 16.9972 18.0255 16.9821C18.0934 16.9553 18.1822 16.9117 18.292 16.8514C18.3875 16.7818 18.455 16.7244 18.4944 16.6791C18.543 16.6196 18.5488 16.5324 18.512 16.4176C18.4726 16.2911 18.4244 16.2094 18.3674 16.1725C18.3196 16.1214 18.2274 16.092 18.0908 16.0845ZM15.3729 17.6613L15.2786 17.7367L15.2384 17.8926L15.4697 17.7694L15.3729 17.6613ZM17.1631 17.4248L16.933 17.382L16.84 17.5492L16.9582 17.6712L17.099 17.641L17.1631 17.4248ZM17.0124 19.0402C16.9722 18.8525 16.9198 18.7226 16.8552 18.6505C16.7882 18.5667 16.6616 18.5202 16.4756 18.511C16.2752 18.4926 16.1319 18.5111 16.0456 18.5664C15.9593 18.6217 15.8809 18.7428 15.8106 18.9297C15.7259 19.1074 15.6949 19.2491 15.7176 19.3547C15.7494 19.446 15.8345 19.5566 15.9728 19.6865C16.1203 19.8022 16.241 19.8499 16.3349 19.8298C16.4288 19.8097 16.5515 19.7527 16.7032 19.6588C16.8574 19.5767 16.9576 19.5 17.0037 19.4287C17.0472 19.3457 17.0502 19.2162 17.0124 19.0402ZM18.3375 19.1243L18.208 19.2073L18.1754 19.3984L18.3803 19.4097L18.5085 19.2349L18.3375 19.1243ZM20.178 19.2084C20.0523 19.1371 19.9324 19.1506 19.8185 19.2486C19.7254 19.3299 19.6534 19.3945 19.6022 19.4423C19.5486 19.4783 19.5402 19.5537 19.5771 19.6686C19.6258 19.7809 19.6865 19.8353 19.7594 19.832C19.8298 19.8169 19.925 19.8026 20.0448 19.7892C20.1529 19.7783 20.2305 19.7678 20.2774 19.7577C20.3335 19.7334 20.375 19.6693 20.4018 19.5654C20.4286 19.4614 20.4194 19.3898 20.3741 19.3504C20.3406 19.3085 20.2752 19.2612 20.178 19.2084ZM20.2926 20.6013C20.2699 20.4957 20.2569 20.4064 20.2536 20.3335C20.2502 20.2606 20.1919 20.2179 20.0788 20.2053C19.9539 20.1953 19.8588 20.2095 19.7934 20.2481C19.7255 20.2749 19.6677 20.3487 19.62 20.4694C19.5697 20.5783 19.5743 20.6571 19.6338 20.7057C19.6908 20.7426 19.7646 20.8004 19.8551 20.8792C19.9289 20.937 19.9859 20.9739 20.0261 20.9898C20.0755 20.9915 20.1388 20.9718 20.2159 20.9307C20.293 20.8896 20.3265 20.8456 20.3165 20.7987C20.3181 20.7492 20.3102 20.6834 20.2926 20.6013ZM18.5237 20.8517C18.4031 20.8039 18.3088 20.7934 18.2409 20.8203C18.173 20.8471 18.0963 20.9188 18.0108 21.0353C17.9136 21.1543 17.8432 21.2553 17.7997 21.3383C17.7653 21.407 17.7867 21.5067 17.8638 21.6375C17.9552 21.7774 18.0444 21.8503 18.1316 21.8562C18.228 21.8478 18.3512 21.8214 18.5012 21.777C18.6278 21.7375 18.7095 21.6893 18.7463 21.6323C18.7807 21.5636 18.8016 21.4609 18.8092 21.3243C18.8167 21.1877 18.8012 21.0867 18.7626 21.0214C18.7358 20.9535 18.6562 20.8969 18.5237 20.8517ZM16.6544 21.7495L16.5325 21.61L16.4005 21.7671L16.4772 21.9532L16.6708 21.9117L16.6544 21.7495ZM21.6226 20.537C21.5472 20.5287 21.4957 20.5459 21.468 20.5886C21.4521 20.6288 21.427 20.6833 21.3926 20.752C21.3398 20.8493 21.3528 20.9385 21.4316 21.0198C21.4936 21.0802 21.5414 21.1313 21.5749 21.1732C21.6085 21.2151 21.6638 21.2155 21.7409 21.1744C21.8297 21.1308 21.875 21.0843 21.8766 21.0349C21.8783 20.9854 21.8691 20.9138 21.849 20.8199C21.8288 20.726 21.8091 20.6627 21.7899 20.6301C21.7681 20.5856 21.7123 20.5546 21.6226 20.537ZM23.2356 20.5042C23.1761 20.4556 23.1262 20.4233 23.086 20.4074C23.0458 20.3915 22.993 20.4028 22.9276 20.4414C22.8413 20.4967 22.7713 20.5424 22.7177 20.5784C22.6757 20.6119 22.6661 20.6815 22.6888 20.7871C22.7256 20.9019 22.7667 20.979 22.812 21.0184C22.8665 21.0436 22.9549 21.0553 23.0773 21.0536C23.1904 21.0661 23.275 21.0603 23.3312 21.036C23.3991 21.0091 23.4523 20.9425 23.4908 20.8361C23.5319 20.7413 23.5193 20.6827 23.4531 20.6601C23.3961 20.6232 23.3236 20.5712 23.2356 20.5042ZM17.8514 22.7815C17.8078 22.6927 17.7541 22.6428 17.6904 22.6319C17.6385 22.6185 17.5655 22.6219 17.4717 22.642C17.3309 22.6722 17.2462 22.764 17.2178 22.9173C17.2027 23.0188 17.1956 23.1001 17.1964 23.1612C17.2065 23.2082 17.2601 23.258 17.3573 23.3108C17.4521 23.3519 17.5229 23.3674 17.5698 23.3573C17.626 23.333 17.6947 23.2815 17.776 23.2027C17.8455 23.1264 17.887 23.0623 17.9004 23.0103C17.9256 22.9558 17.9092 22.8796 17.8514 22.7815ZM18.7529 24.4107C18.6817 24.1928 18.6159 24.029 18.5555 23.9192C18.4951 23.8094 18.3543 23.7537 18.1331 23.752C17.8624 23.7487 17.6604 23.7797 17.5271 23.8451C17.4056 23.908 17.3042 24.0647 17.2229 24.3153C17.1467 24.5894 17.1295 24.7956 17.1715 24.9339C17.2251 25.0696 17.3613 25.2184 17.5801 25.3801C17.7821 25.5209 17.9451 25.5657 18.0691 25.5146C18.1907 25.4517 18.3528 25.3494 18.5556 25.2078C18.7258 25.0854 18.8184 24.9735 18.8334 24.8721C18.846 24.7589 18.8192 24.6051 18.7529 24.4107Z" fill="white"/>
<path d="M81.9314 5.86704C82.9691 6.0876 83.8767 6.71136 84.4545 7.60107C85.0322 8.49079 85.2329 9.57359 85.0124 10.6113L87.9468 11.235C88.7251 11.4004 89.4057 11.8682 89.8391 12.5355C90.2724 13.2028 90.4229 14.0149 90.2575 14.7932L89.6338 17.7276C90.6715 17.9482 91.579 18.5719 92.1568 19.4617C92.7346 20.3514 92.9353 21.4342 92.7147 22.4719C92.4942 23.5096 91.8704 24.4171 90.9807 24.9949C90.091 25.5727 89.0082 25.7734 87.9705 25.5528L87.3468 28.4873C87.1813 29.2655 86.7135 29.9462 86.0462 30.3795C85.3789 30.8129 84.5668 30.9634 83.7886 30.798L80.8541 30.1742C80.6336 31.2119 80.0098 32.1195 79.1201 32.6973C78.2304 33.2751 77.1476 33.4757 76.1099 33.2552C75.0722 33.0346 74.1646 32.4109 73.5869 31.5211C73.0091 30.6314 72.8084 29.5486 73.029 28.5109L70.0945 27.8872C69.3162 27.7218 68.6356 27.254 68.2022 26.5867C67.7689 25.9194 67.6184 25.1073 67.7838 24.329L68.8234 19.4383L70.7797 19.8541C71.2985 19.9644 71.8399 19.864 72.2848 19.5752C72.7296 19.2863 73.0415 18.8325 73.1518 18.3136C73.2621 17.7948 73.1617 17.2534 72.8728 16.8085C72.5839 16.3637 72.1301 16.0518 71.6113 15.9415L69.655 15.5257L70.6946 10.635C70.86 9.85669 71.3278 9.17602 71.9951 8.74268C72.6624 8.30934 73.4745 8.15882 74.2527 8.32425L77.1872 8.94798C77.4078 7.9103 78.0315 7.00274 78.9212 6.42495C79.8109 5.84716 80.8937 5.64647 81.9314 5.86704Z" fill="url(#paint1_linear_2_74)"/>
<path d="M75.3228 24.9063C75.1941 24.8772 75.0935 24.8052 75.021 24.6903C74.9486 24.5755 74.927 24.4537 74.9561 24.325L77.5237 12.984C77.5528 12.8553 77.6248 12.7547 77.7396 12.6822C77.8545 12.6098 77.9762 12.5882 78.105 12.6173L81.6161 13.4122C81.7449 13.4414 81.8455 13.5133 81.9179 13.6282C81.9903 13.743 82.012 13.8648 81.9828 13.9935L80.1227 22.2096L84.9857 23.3106C85.1144 23.3397 85.215 23.4117 85.2874 23.5265C85.3599 23.6413 85.3815 23.7631 85.3524 23.8919L84.7522 26.5428C84.7231 26.6715 84.6511 26.7721 84.5362 26.8445C84.4214 26.917 84.2996 26.9386 84.1709 26.9095L75.3228 24.9063ZM79.8639 14.1413L79.7012 14.289L79.6575 14.4822L79.8761 14.4947L79.9821 14.3526L79.8639 14.1413ZM78.4326 14.1864C78.3145 14.1104 78.2184 14.0456 78.1444 13.9919C78.0848 13.9292 78.0008 13.9471 77.8924 14.0456C77.7866 14.1324 77.755 14.2175 77.7976 14.301C77.8429 14.3728 77.8932 14.4764 77.9487 14.612C77.9886 14.7072 78.0294 14.7718 78.0709 14.8058C78.1241 14.8425 78.2074 14.8552 78.3207 14.8439C78.4222 14.83 78.49 14.8023 78.524 14.7607C78.558 14.7192 78.587 14.6458 78.6108 14.5405C78.632 14.4468 78.629 14.3785 78.6019 14.3354C78.5774 14.2807 78.5209 14.231 78.4326 14.1864ZM79.5168 15.0224L79.4727 14.8094L79.2557 14.871L79.1945 15.0602L79.3757 15.1566L79.5168 15.0224ZM80.1494 14.9995C80.0467 14.964 79.9699 14.9773 79.9189 15.0396C79.8849 15.0811 79.8698 15.1208 79.8735 15.1585C79.8916 15.1872 79.9201 15.2245 79.959 15.2702C80.0159 15.3446 80.0822 15.378 80.1577 15.3705C80.2242 15.3487 80.2718 15.3287 80.3005 15.3106C80.3409 15.2951 80.3632 15.2509 80.3674 15.1781C80.3599 15.1025 80.3386 15.0608 80.3035 15.0529C80.2683 15.0449 80.217 15.0271 80.1494 14.9995ZM80.9669 15.6276L80.7115 15.5328L80.5234 15.7117L80.6513 15.9621L80.9209 15.9124L80.9669 15.6276ZM79.1388 16.2841C79.0392 16.1262 78.9387 16.0542 78.8371 16.0681C78.7355 16.0821 78.5935 16.1114 78.4111 16.1563C78.2314 16.1894 78.088 16.2246 77.9812 16.2619C77.8886 16.2902 77.8342 16.3948 77.8179 16.5756C77.8015 16.7565 77.829 16.8796 77.9004 16.9449C77.9834 17.013 78.1146 17.0857 78.2939 17.1632C78.4381 17.2328 78.5447 17.2508 78.6138 17.2172C78.6856 17.1719 78.7784 17.0884 78.8921 16.9665C79.0085 16.8329 79.1006 16.7245 79.1687 16.6415C79.2367 16.5585 79.2267 16.4393 79.1388 16.2841ZM80.2667 16.927C80.2305 16.8696 80.1962 16.8311 80.1637 16.8114C80.1456 16.7827 80.1046 16.7734 80.0408 16.7836C79.9105 16.8156 79.838 16.8915 79.8232 17.0112C79.8148 17.1569 79.8665 17.2547 79.9782 17.3046C80.0458 17.3322 80.0953 17.3311 80.1266 17.3013C80.1697 17.2742 80.2154 17.2353 80.2637 17.1847C80.3174 17.1107 80.3184 17.0248 80.2667 16.927ZM78.5874 17.9863C78.5266 17.8742 78.4598 17.816 78.387 17.8118C78.3167 17.7959 78.2165 17.8039 78.0862 17.836C77.9586 17.8563 77.8543 17.8819 77.7735 17.9128C77.6953 17.932 77.6462 18.0132 77.6261 18.1563C77.6034 18.3111 77.6075 18.4289 77.6384 18.5097C77.6693 18.5905 77.7627 18.6671 77.9186 18.7393C78.0719 18.8232 78.1921 18.8627 78.2793 18.8578C78.3783 18.8556 78.4918 18.789 78.6198 18.6581C78.7336 18.5362 78.775 18.4348 78.744 18.354C78.7158 18.2615 78.6636 18.1389 78.5874 17.9863ZM80.2515 19.7657L80.0607 19.6303L79.8709 19.7349L79.8895 19.9791L80.12 19.939L80.2515 19.7657ZM77.9928 19.7158C77.9986 19.5817 77.9833 19.486 77.9471 19.4286C77.9109 19.3712 77.8297 19.322 77.7036 19.2812C77.5893 19.243 77.5066 19.255 77.4555 19.3173C77.4189 19.3705 77.3652 19.4445 77.2946 19.5392C77.2383 19.6249 77.2107 19.6925 77.2118 19.7419C77.2129 19.7914 77.2406 19.8592 77.2949 19.9453C77.3428 20.0054 77.3928 20.029 77.445 20.0162C77.4971 20.0034 77.5635 19.9815 77.6444 19.9506C77.7395 19.9106 77.8177 19.8914 77.8789 19.893C77.9544 19.8855 77.9924 19.8264 77.9928 19.7158ZM78.6798 20.7572L78.5258 20.7038L78.4413 20.8323L78.503 21.0493L78.6792 20.9231L78.6798 20.7572ZM76.7507 20.8003L76.6851 20.6008L76.4681 20.6625L76.3989 20.8867L76.6136 20.9168L76.7507 20.8003ZM79.1671 22.4362C79.1914 22.2202 79.1418 22.086 79.0184 22.0334C78.9066 21.9835 78.7507 21.9113 78.5507 21.8168C78.374 21.7276 78.233 21.671 78.1277 21.6472C78.0223 21.6234 77.8985 21.6814 77.756 21.8214C77.6083 21.9849 77.527 22.1264 77.5122 22.2461C77.4974 22.3658 77.5431 22.5176 77.6491 22.7015C77.7551 22.8855 77.8594 22.9952 77.9621 23.0308C78.0765 23.069 78.2366 23.0683 78.4424 23.0288C78.6742 22.9829 78.8463 22.9295 78.9584 22.8688C79.0706 22.8081 79.1402 22.6639 79.1671 22.4362ZM83.2487 24.1354C83.2171 23.8944 83.1467 23.7432 83.0377 23.6816C82.9312 23.6083 82.7596 23.551 82.5229 23.5097C82.2628 23.4631 82.0585 23.4414 81.9101 23.4448C81.7644 23.4364 81.6272 23.553 81.4987 23.7946C81.3755 24.0127 81.3703 24.1715 81.4832 24.2709C81.6077 24.3729 81.7607 24.5121 81.9423 24.6886C82.1004 24.8597 82.2242 24.9923 82.3136 25.0864C82.4174 25.1714 82.573 25.1635 82.7803 25.0628C83.0164 24.944 83.1607 24.8229 83.2132 24.6995C83.2775 24.5787 83.2893 24.3906 83.2487 24.1354ZM80.236 23.1765C80.1375 23.0681 80.0179 23.0533 79.877 23.1321C79.7818 23.1721 79.7172 23.2128 79.6832 23.2543C79.6518 23.2842 79.6444 23.344 79.661 23.4339C79.6749 23.5355 79.6968 23.6019 79.7266 23.6333C79.7681 23.6673 79.8415 23.6962 79.9469 23.7201C80.0288 23.7386 80.0796 23.7316 80.0992 23.6992C80.1332 23.6577 80.1712 23.5986 80.2132 23.522C80.2551 23.4453 80.2814 23.3836 80.292 23.3368C80.3143 23.2926 80.2957 23.2392 80.236 23.1765ZM81.1698 23.5355C81.1091 23.4234 81.0149 23.3774 80.8873 23.3977C80.8234 23.4079 80.7862 23.4364 80.7756 23.4832C80.7677 23.5183 80.7558 23.571 80.7399 23.6412C80.7277 23.7492 80.76 23.8242 80.8366 23.8661C80.9159 23.8964 80.9763 23.9285 81.0178 23.9625C81.071 23.9992 81.129 23.9877 81.1917 23.9281C81.257 23.8567 81.2833 23.795 81.2705 23.7429C81.2577 23.6908 81.2241 23.6217 81.1698 23.5355ZM84.3643 24.4249L84.3043 24.2821L84.1129 24.3126L84.1513 24.4689L84.2662 24.5318L84.3643 24.4249ZM84.3289 24.989C84.3213 24.9134 84.2942 24.8704 84.2474 24.8598C84.2123 24.8518 84.1654 24.8412 84.1069 24.828C84.025 24.8094 83.9559 24.843 83.8996 24.9287C83.872 24.9962 83.888 25.0614 83.9476 25.1241C83.9955 25.1842 84.0285 25.2286 84.0466 25.2573C84.0765 25.2886 84.1187 25.292 84.1735 25.2675C84.2974 25.2094 84.3492 25.1166 84.3289 24.989ZM78.1078 23.6913C78.0301 23.5999 77.962 23.5475 77.9035 23.5343C77.8476 23.5093 77.7604 23.5142 77.6418 23.5489C77.5323 23.5979 77.4637 23.6562 77.4361 23.7237C77.4228 23.7823 77.4218 23.8682 77.4331 23.9815C77.4353 24.0804 77.4644 24.1423 77.5202 24.1673C77.5787 24.1805 77.6548 24.1977 77.7485 24.2189C77.8421 24.2401 77.9182 24.2574 77.9767 24.2706C78.0352 24.2839 78.0926 24.2476 78.1489 24.162C78.2079 24.0646 78.2323 23.984 78.2221 23.9202C78.2237 23.859 78.1856 23.7827 78.1078 23.6913ZM79.5405 24.2924C79.4941 24.1712 79.443 24.0981 79.3871 24.0732C79.3312 24.0482 79.2408 24.04 79.1158 24.0487C78.9908 24.0573 78.8938 24.0784 78.8246 24.1119C78.7699 24.1364 78.7292 24.2072 78.7028 24.3243C78.6763 24.4413 78.6883 24.524 78.7389 24.5724C78.7921 24.609 78.8674 24.6568 78.9648 24.7158C79.0505 24.7721 79.1212 24.8127 79.1771 24.8377C79.2356 24.8509 79.3034 24.8232 79.3805 24.7545C79.4836 24.6794 79.5476 24.614 79.5726 24.5581C79.6002 24.4905 79.5895 24.402 79.5405 24.2924ZM80.9336 24.4971C80.8389 24.4265 80.7458 24.43 80.6544 24.5077C80.5513 24.5828 80.5197 24.6679 80.5597 24.7631C80.5815 24.8296 80.61 24.8668 80.6451 24.8747C80.6803 24.8827 80.7342 24.8888 80.8071 24.893C80.9087 24.879 80.9746 24.8324 81.0049 24.7532C81.0431 24.6388 81.0193 24.5534 80.9336 24.4971ZM83.9297 25.6922L83.8443 25.5806L83.6704 25.615L83.7224 25.7929L83.8804 25.8286L83.9297 25.6922ZM78.3169 24.6429L78.0807 24.6264L78.037 24.8195L78.1536 24.9566L78.2731 24.836L78.3169 24.6429Z" fill="white"/>
<path d="M40.224 8.29C40.1836 7.87354 40.2307 7.45322 40.3623 7.05604C40.494 6.65887 40.7073 6.29364 40.9885 5.9838C41.2697 5.67396 41.6126 5.42637 41.9952 5.25694C42.3778 5.08752 42.7916 4.99999 43.21 5H48C48.2652 5 48.5196 5.10536 48.7071 5.29289C48.8946 5.48043 49 5.73478 49 6V6.764C49 8.156 48.006 9.128 47.256 9.702C47.1668 9.76741 47.0891 9.84716 47.026 9.938L47.002 9.988L47 10V10.006L47.006 10.026C47.0127 10.046 47.0367 10.0813 47.078 10.132C47.2323 10.2937 47.4155 10.4253 47.618 10.52C48.18 10.8 49.02 11 50 11C50.984 11 51.824 10.8 52.38 10.52C52.5832 10.4255 52.7671 10.2939 52.922 10.132C52.9517 10.1002 52.976 10.0637 52.994 10.024L53 10.004V9.988L52.976 9.938C52.9129 9.84716 52.8352 9.76741 52.746 9.702C51.996 9.128 51.002 8.156 51.002 6.764V6C51.002 5.73513 51.1071 5.48108 51.2942 5.2936C51.4813 5.10612 51.7351 5.00053 52 5H56.79C57.2084 4.99999 57.6222 5.08752 58.0048 5.25694C58.3874 5.42637 58.7303 5.67396 59.0115 5.9838C59.2927 6.29364 59.506 6.65887 59.6377 7.05604C59.7693 7.45322 59.8164 7.87354 59.776 8.29L59.29 14H59.764C60.154 14 60.604 13.706 61.114 13.04C61.534 12.492 62.17 12 63 12C64.136 12 64.894 12.894 65.308 13.724C65.754 14.614 66 15.774 66 17C66 18.226 65.754 19.386 65.308 20.276C64.894 21.106 64.136 22 63 22C62.17 22 61.534 21.508 61.114 20.96C60.604 20.294 60.154 20 59.764 20H59.29L59.776 25.71C59.8164 26.1265 59.7693 26.5468 59.6377 26.944C59.506 27.3411 59.2927 27.7064 59.0115 28.0162C58.7303 28.326 58.3874 28.5736 58.0048 28.7431C57.6222 28.9125 57.2084 29 56.79 29H52C51.7348 29 51.4804 28.8946 51.2929 28.7071C51.1054 28.5196 51 28.2652 51 28V27.236C51 25.844 51.994 24.872 52.744 24.298C52.8332 24.2326 52.9109 24.1528 52.974 24.062L52.998 24.012L53 24V23.994L52.994 23.974C52.9759 23.935 52.9515 23.8992 52.922 23.868C52.7677 23.7063 52.5845 23.5747 52.382 23.48C51.82 23.2 50.98 23 50 23C49.02 23 48.176 23.2 47.62 23.48C47.4168 23.5745 47.2329 23.7061 47.078 23.868C47.0483 23.8998 47.024 23.9363 47.006 23.976L47 23.996V24L47.002 24.012L47.026 24.062C47.058 24.116 47.126 24.198 47.256 24.298C48.006 24.872 49 25.844 49 27.236V28C49 28.2652 48.8946 28.5196 48.7071 28.7071C48.5196 28.8946 48.2652 29 48 29H43.21C42.7916 29 42.3778 28.9125 41.9952 28.7431C41.6126 28.5736 41.2697 28.326 40.9885 28.0162C40.7073 27.7064 40.494 27.3411 40.3623 26.944C40.2307 26.5468 40.1836 26.1265 40.224 25.71L40.712 20H40.236C39.846 20 39.396 20.294 38.886 20.96C38.466 21.508 37.83 22 37 22C35.864 22 35.106 21.106 34.692 20.276C34.246 19.386 34 18.226 34 17C34 15.774 34.246 14.614 34.692 13.724C35.106 12.894 35.864 12 37 12C37.83 12 38.466 12.492 38.886 13.04C39.396 13.706 39.846 14 40.236 14H40.712L40.224 8.29Z" fill="url(#paint2_linear_2_74)"/>
<path d="M46.9532 21.1793C46.8652 21.181 46.7886 21.1504 46.7234 21.0877C46.6582 21.0249 46.6247 20.9495 46.623 20.8615L46.5993 19.6138C46.5984 19.5658 46.6086 19.4736 46.63 19.3371C46.6513 19.1927 46.7369 19.0671 46.8869 18.9602L47.0171 18.8617C47.8454 18.2378 48.5355 17.7126 49.0875 17.286C49.6474 16.8593 50.0646 16.4953 50.3389 16.194C50.6211 15.8846 50.76 15.6139 50.7555 15.3819C50.7534 15.2699 50.7314 15.1623 50.6894 15.0591C50.6474 14.9559 50.5224 14.9063 50.3145 14.9102C50.1545 14.9133 50.0313 14.9556 49.9448 15.0373C49.8582 15.1109 49.7958 15.1961 49.7577 15.2929C49.7195 15.3896 49.689 15.4702 49.6663 15.5347C49.6284 15.6474 49.5658 15.7246 49.4786 15.7663C49.3992 15.7998 49.3036 15.8176 49.1916 15.8198L46.936 15.8627C46.864 15.8641 46.7996 15.8413 46.7427 15.7943C46.6936 15.7393 46.6684 15.6757 46.667 15.6038C46.6715 14.9956 46.8294 14.4685 47.141 14.0224C47.4524 13.5684 47.8777 13.2123 48.4169 12.954C48.9561 12.6957 49.5696 12.56 50.2575 12.5469C50.9854 12.533 51.6193 12.629 52.1593 12.8348C52.6992 13.0325 53.1209 13.3285 53.4245 13.7228C53.728 14.1171 53.8852 14.5982 53.896 15.1661C53.9044 15.6061 53.8042 16.016 53.5954 16.3961C53.3865 16.7761 53.0894 17.1418 52.7041 17.4932C52.3265 17.8365 51.8812 18.193 51.3682 18.5628L51.2853 18.6244L53.8169 18.5763C53.9049 18.5746 53.9815 18.6051 54.0467 18.6679C54.1119 18.7307 54.1453 18.806 54.147 18.894L54.1817 20.7177C54.1834 20.8057 54.1528 20.8823 54.09 20.9475C54.0273 21.0127 53.9519 21.0461 53.8639 21.0478L46.9532 21.1793ZM49.9448 13.1409C49.8716 13.0783 49.7914 13.0718 49.7043 13.1215C49.6411 13.1627 49.5857 13.1918 49.538 13.2087C49.4983 13.2255 49.4832 13.2737 49.4927 13.3536C49.5184 13.4411 49.5475 13.4966 49.5799 13.52C49.6204 13.5432 49.6847 13.562 49.773 13.5763C49.8451 13.5829 49.8929 13.57 49.9163 13.5376C49.9395 13.4971 49.9665 13.4446 49.9973 13.38C50.0356 13.2912 50.0181 13.2116 49.9448 13.1409ZM51.287 13.6675C51.2527 13.5481 51.219 13.4568 51.1858 13.3934C51.1606 13.3298 51.0839 13.2953 50.9558 13.2897C50.8276 13.2842 50.7361 13.3099 50.6812 13.367C50.6341 13.4159 50.5877 13.5008 50.542 13.6217C50.504 13.7264 50.5054 13.8024 50.5463 13.8496C50.5953 13.8967 50.6643 13.9514 50.7535 14.0137C50.8267 14.0763 50.8875 14.1152 50.9358 14.1303C50.9921 14.1452 51.0597 14.1239 51.1386 14.0664C51.2255 14.0087 51.2765 13.9558 51.2916 13.9075C51.3145 13.851 51.313 13.771 51.287 13.6675ZM49.2576 13.6101L49.1367 13.5644L49.0307 13.6744L49.1412 13.8044L49.3083 13.7532L49.2576 13.6101ZM48.4192 14.3342C48.3608 14.2073 48.3109 14.1122 48.2697 14.049C48.2284 13.9778 48.1398 13.9474 48.004 13.958C47.8681 13.9686 47.789 14.0141 47.7665 14.0946C47.7439 14.167 47.7178 14.2675 47.6882 14.3961C47.6588 14.5327 47.6329 14.6412 47.6104 14.7216C47.5958 14.7939 47.6451 14.865 47.7585 14.9349C47.88 15.0126 47.9766 15.0427 48.0483 15.0254C48.1278 14.9999 48.2266 14.938 48.3448 14.8397C48.4392 14.7579 48.4859 14.685 48.4847 14.621C48.4913 14.5489 48.4695 14.4533 48.4192 14.3342ZM51.7066 14.2716L51.5746 14.2741L51.5287 14.383L51.6376 14.429L51.7329 14.3911L51.7066 14.2716ZM52.7513 14.2998L52.6193 14.3023L52.489 14.3888L52.6112 14.5065L52.7543 14.4557L52.7513 14.2998ZM50.4246 14.392L50.3533 14.4294L50.3787 14.5009L50.4632 14.5233L50.4855 14.4389L50.4246 14.392ZM53.2935 14.4095L53.1744 14.4597L53.1165 14.5689L53.2369 14.5906L53.356 14.5403L53.2935 14.4095ZM51.3225 14.903L51.2127 14.8091L51.1428 14.9185L51.1451 15.0385L51.2644 15.0002L51.3225 14.903ZM52.8365 14.9943C52.7627 14.8996 52.6899 14.857 52.6181 14.8664C52.5541 14.8676 52.4665 14.8893 52.3553 14.9314C52.2519 14.9654 52.1807 15.0067 52.1416 15.0555C52.1103 15.0961 52.0958 15.1724 52.0979 15.2844C52.0999 15.3883 52.1213 15.464 52.1623 15.5112C52.2032 15.5584 52.2759 15.597 52.3805 15.6271C52.5172 15.6645 52.6258 15.6944 52.7063 15.7169C52.7867 15.7393 52.8658 15.6898 52.9435 15.5683C53.0212 15.4468 53.0434 15.3504 53.01 15.279C52.9846 15.2075 52.9268 15.1126 52.8365 14.9943ZM51.2598 16.0204L51.1889 16.0818L51.1794 16.214L51.3107 16.1755L51.3329 16.0791L51.2598 16.0204ZM52.9778 16.1078C52.9367 16.0525 52.8961 16.0213 52.8559 16.0141C52.8238 16.0067 52.772 16.0157 52.7004 16.041C52.6527 16.0579 52.6293 16.0864 52.63 16.1264C52.6387 16.1582 52.6435 16.2022 52.6446 16.2581C52.6456 16.3141 52.6385 16.3623 52.6233 16.4026C52.6161 16.4427 52.6407 16.4743 52.6971 16.4972C52.7614 16.512 52.8012 16.5032 52.8166 16.4709C52.84 16.4385 52.8673 16.3979 52.8983 16.3493C52.9374 16.3006 52.9686 16.26 52.992 16.2275C53.0234 16.1949 53.0187 16.155 52.9778 16.1078ZM51.5091 16.5078L51.3882 16.4621L51.3187 16.5954L51.429 16.7134L51.5471 16.6151L51.5091 16.5078ZM50.645 16.5122L50.5255 16.5385L50.564 16.6698L50.6962 16.6793L50.645 16.5122ZM52.1414 16.9398C52.0919 16.8608 52.0432 16.8217 51.9952 16.8226C51.9472 16.8235 51.8754 16.8369 51.7799 16.8627C51.7082 16.8801 51.6607 16.905 51.6373 16.9374C51.6139 16.9699 51.599 17.0262 51.5925 17.1063C51.5859 17.1785 51.5909 17.2344 51.6077 17.2741C51.6243 17.3057 51.6689 17.3369 51.7415 17.3675C51.8061 17.3983 51.8542 17.4054 51.8859 17.3888C51.9255 17.364 51.9688 17.3272 52.0159 17.2783C52.0706 17.2132 52.1176 17.1603 52.1569 17.1196C52.1961 17.0788 52.1909 17.0189 52.1414 16.9398ZM50.9203 17.7312C50.8952 17.6757 50.8627 17.6483 50.8227 17.6491C50.7825 17.6418 50.7306 17.6428 50.6667 17.652C50.5869 17.6615 50.519 17.6668 50.463 17.6679C50.4068 17.661 50.3756 17.7016 50.3693 17.7897C50.347 17.8781 50.3522 17.9421 50.3849 17.9814C50.4177 18.0208 50.4745 18.0638 50.5554 18.1102C50.6202 18.149 50.6683 18.1561 50.6998 18.1315C50.7392 18.0987 50.7864 18.0538 50.8413 17.9968C50.8964 17.9477 50.9316 17.907 50.947 17.8747C50.9624 17.8424 50.9535 17.7946 50.9203 17.7312ZM50.088 18.1431C49.9349 18.09 49.8271 18.1001 49.7645 18.1733C49.7017 18.2385 49.6236 18.34 49.5302 18.4778C49.4447 18.6074 49.3827 18.7126 49.3442 18.7934C49.3056 18.8661 49.3355 18.9656 49.4339 19.0917C49.5245 19.226 49.6137 19.2884 49.7015 19.2787C49.7893 19.269 49.9088 19.2387 50.0598 19.1878C50.179 19.1456 50.242 19.0924 50.2488 19.0282C50.2635 18.9559 50.2695 18.8558 50.2671 18.7278C50.2642 18.5759 50.2699 18.4517 50.284 18.3554C50.298 18.2511 50.2327 18.1804 50.088 18.1431ZM51.1097 18.8558L51.0366 18.7972L50.9537 18.8588L50.9922 18.9901L51.0991 18.928L51.1097 18.8558ZM53.4548 19.0992C53.4063 19.0762 53.3702 19.0728 53.3465 19.0893C53.3229 19.1058 53.2873 19.1304 53.2399 19.1633C53.2086 19.1959 53.1851 19.2244 53.1695 19.2487C53.154 19.273 53.1547 19.309 53.1716 19.3567C53.1967 19.4122 53.2215 19.4557 53.2461 19.4873C53.2706 19.5108 53.3147 19.518 53.3785 19.5088C53.4424 19.4995 53.4901 19.4866 53.5218 19.47C53.5534 19.4454 53.5724 19.3971 53.5791 19.3249C53.594 19.2686 53.5892 19.2287 53.5648 19.2052C53.5482 19.1735 53.5115 19.1382 53.4548 19.0992ZM49.0563 19.435C48.9281 19.4214 48.8445 19.447 48.8058 19.5118C48.775 19.5764 48.7327 19.6652 48.6788 19.7782C48.633 19.8911 48.6066 19.9796 48.5998 20.0438C48.5929 20.0999 48.6302 20.1672 48.7117 20.2457C48.8012 20.324 48.8779 20.3586 48.9417 20.3493C49.0056 20.3401 49.0889 20.3065 49.1919 20.2486C49.2789 20.1989 49.3299 20.1459 49.3449 20.0896C49.3598 20.0333 49.3543 19.9574 49.3285 19.8619C49.3021 19.7344 49.2802 19.6348 49.2628 19.5631C49.2535 19.4912 49.1846 19.4485 49.0563 19.435ZM52.7184 19.5093C52.5974 19.4556 52.5006 19.4135 52.428 19.3828C52.3634 19.3521 52.284 19.3856 52.1898 19.4834C52.088 19.5973 52.0298 19.6945 52.0153 19.7747C52.0009 19.855 52.0309 19.9625 52.1055 20.0971C52.1716 20.2079 52.2404 20.2506 52.312 20.2252C52.3915 20.1997 52.4991 20.1776 52.6348 20.159C52.7463 20.1329 52.8379 20.1112 52.9096 20.0938C52.9813 20.0764 53.024 20.0076 53.0377 19.8873C53.0514 19.767 53.0299 19.6874 52.9731 19.6485C52.9164 19.6096 52.8315 19.5632 52.7184 19.5093ZM51.0546 19.745C51.0056 19.6899 50.9609 19.6548 50.9206 19.6396C50.8883 19.6242 50.8404 19.6291 50.7768 19.6543C50.7133 19.6795 50.6859 19.712 50.6947 19.7519C50.7034 19.7917 50.7083 19.8396 50.7094 19.8956C50.7108 19.9676 50.7517 20.0148 50.8321 20.0373C50.8964 20.0521 50.9448 20.0712 50.9772 20.0946C51.0177 20.1178 51.0574 20.101 51.0963 20.0443C51.1351 19.9795 51.1501 19.9272 51.1413 19.8874C51.1326 19.8476 51.1037 19.8001 51.0546 19.745ZM47.6283 20.0743C47.5709 20.0034 47.5181 19.9604 47.4698 19.9453C47.4295 19.93 47.3656 19.9392 47.2783 19.9729C47.1987 19.9984 47.1554 20.0353 47.1483 20.0834C47.1413 20.1316 47.1385 20.1996 47.1402 20.2876C47.1414 20.3516 47.1583 20.3953 47.1907 20.4187C47.2232 20.442 47.2715 20.4611 47.3358 20.4759C47.4003 20.4987 47.4525 20.5097 47.4925 20.5089C47.5323 20.5002 47.5677 20.4675 47.5987 20.4109C47.6453 20.338 47.6762 20.2814 47.6914 20.2411C47.7065 20.1928 47.6855 20.1372 47.6283 20.0743Z" fill="white"/>
<defs>
<linearGradient id="paint0_linear_2_74" x1="16.0661" y1="5.28286" x2="21.8877" y2="32.671" gradientUnits="userSpaceOnUse">
<stop stop-color="#0040FF"/>
<stop offset="1" stop-color="#6484E2"/>
</linearGradient>
<linearGradient id="paint1_linear_2_74" x1="83.8877" y1="6.28286" x2="78.0662" y2="33.671" gradientUnits="userSpaceOnUse">
<stop stop-color="#0040FF"/>
<stop offset="1" stop-color="#6484E2"/>
</linearGradient>
<linearGradient id="paint2_linear_2_74" x1="50" y1="5" x2="50" y2="29" gradientUnits="userSpaceOnUse">
<stop stop-color="#0040FF"/>
<stop offset="1" stop-color="#6484E2"/>
</linearGradient>
</defs>
</svg>
