<svg width="445" height="223" viewBox="0 0 445 223" fill="none" xmlns="http://www.w3.org/2000/svg">
<path d="M64.436 145.808C65.4448 145.808 65.949 148.352 65.949 153.441C65.949 158.473 65.4448 160.989 64.436 160.989H48.149V170.767H59.007C60.0158 170.767 60.52 172.997 60.52 177.457C60.52 181.86 60.0452 184.061 59.096 184.061H48.149V204.731C48.149 205.532 47.0218 206.046 44.767 206.275C42.5717 206.561 40.7323 206.704 39.249 206.704L35.066 206.532C32.1587 206.189 30.705 205.618 30.705 204.817V148.038C30.705 147.123 30.883 146.523 31.239 146.237C31.6543 145.95 32.2477 145.808 33.019 145.808H64.436ZM69.9798 163.476C69.9798 162.847 72.531 162.533 77.6338 162.533C82.7362 162.533 85.2878 162.847 85.2878 163.476V188.521C85.2878 191.38 86.237 192.809 88.1358 192.809C89.5598 192.809 91.1618 192.209 92.9418 191.008V163.476C92.9418 162.905 95.4632 162.618 100.507 162.618C105.55 162.618 108.072 162.905 108.072 163.476V191.608H110.386C112.403 191.608 113.412 193.467 113.412 197.183C113.412 199.07 112.996 200.986 112.166 202.93C110.979 205.446 109.377 206.704 107.36 206.704C103.384 206.704 100.447 205.131 98.5488 201.987L98.4598 202.072C94.8402 205.16 90.954 206.704 86.8008 206.704C81.0452 206.704 76.803 205.332 74.0738 202.587C71.3442 199.785 69.9798 195.182 69.9798 188.778V163.476ZM137.437 205.332C137.437 205.732 135.301 205.932 131.029 205.932C125.096 205.76 122.129 205.446 122.129 204.988V177.199H119.815C118.272 177.199 117.264 175.941 116.789 173.425C116.67 172.682 116.611 171.939 116.611 171.195C116.611 169.423 116.967 167.65 117.679 165.878C118.747 163.362 120.408 162.104 122.663 162.104C124.918 162.104 126.935 162.618 128.715 163.648C130.495 164.677 131.682 165.706 132.275 166.735C136.013 163.648 140.463 162.104 145.625 162.104C150.787 162.104 154.525 163.447 156.839 166.135C159.153 168.823 160.31 173.225 160.31 179.343V205.074C160.31 205.76 157.759 206.103 152.656 206.103C147.613 206.103 145.091 205.76 145.091 205.074V180.287C145.091 177.428 144.053 175.998 141.976 175.998C141.383 175.998 140.552 176.256 139.484 176.77C138.416 177.228 137.734 177.571 137.437 177.8V205.332ZM202.387 205.846H172.839C170.763 205.846 169.309 203.902 168.478 200.014C168.063 197.898 167.855 196.297 167.855 195.211C167.855 194.125 168.033 193.41 168.389 193.067C181.68 179.858 188.325 170.881 188.325 166.135C188.325 164.534 187.88 163.333 186.99 162.533C186.16 161.732 184.795 161.332 182.896 161.332C181.057 161.332 179.188 161.675 177.289 162.361C175.45 163.047 173.996 163.791 172.928 164.591C170.614 161.904 169.012 159.073 168.122 156.1C167.826 155.128 167.677 154.242 167.677 153.441C167.677 152.583 167.826 151.783 168.122 151.04C168.597 149.553 170.792 148.152 174.708 146.837C178.684 145.522 182.867 144.864 187.257 144.864C200.548 144.864 207.193 150.554 207.193 161.932C207.193 166.964 205.413 172.082 201.853 177.285C198.293 182.431 194.14 186.891 189.393 190.665L207.371 189.979C207.668 193.01 207.816 195.64 207.816 197.87C207.816 200.1 207.342 201.987 206.392 203.53C205.443 205.074 204.108 205.846 202.387 205.846ZM214.17 200.786V147.437C214.17 146.237 217.167 145.636 223.159 145.636C229.211 145.636 232.237 146.237 232.237 147.437V189.464H245.943C247.011 189.464 247.753 190.808 248.168 193.495C248.346 194.811 248.435 196.154 248.435 197.527C248.435 198.899 248.346 200.3 248.168 201.729C247.694 204.474 246.922 205.846 245.854 205.846H218.442C217.137 205.846 216.099 205.332 215.327 204.302C214.556 203.273 214.17 202.101 214.17 200.786ZM286.934 203.53C283.196 205.646 278.39 206.704 272.516 206.704C266.642 206.704 261.688 204.788 257.653 200.957C253.618 197.069 251.601 191.723 251.601 184.918C251.601 178.057 253.529 172.539 257.386 168.365C261.302 164.191 266.227 162.104 272.16 162.104C278.093 162.104 282.662 163.562 285.866 166.478C289.129 169.394 290.761 172.94 290.761 177.113C290.761 186.377 285.243 191.008 274.207 191.008H268.066C268.066 192.723 268.541 193.924 269.49 194.61C270.499 195.24 271.952 195.554 273.851 195.554C278.004 195.554 281.95 194.639 285.688 192.809C285.747 192.752 286.014 193.152 286.489 194.01C287.913 196.469 288.625 198.556 288.625 200.271C288.625 201.93 288.061 203.016 286.934 203.53ZM275.809 178.743C275.809 176.342 274.593 175.141 272.16 175.141C271.033 175.141 270.054 175.484 269.223 176.17C268.452 176.799 268.066 177.743 268.066 179V181.659H272.872C274.83 181.659 275.809 180.687 275.809 178.743ZM302.182 174.712C300.521 171.853 299.69 169.537 299.69 167.765C299.69 165.935 300.194 164.763 301.203 164.248C304.585 162.819 309.213 162.104 315.087 162.104C321.02 162.104 325.203 163.447 327.636 166.135C330.069 168.765 331.285 172.682 331.285 177.885V191.437H334.311C335.32 191.437 336.091 192.009 336.625 193.152C337.218 194.296 337.515 195.868 337.515 197.87C337.515 199.871 336.981 201.844 335.913 203.788C334.904 205.732 333.51 206.704 331.73 206.704C328.526 206.704 325.945 205.875 323.987 204.217C323.097 203.53 322.415 202.701 321.94 201.729C319.211 205.046 314.968 206.704 309.213 206.704C304.882 206.704 301.233 205.217 298.266 202.244C295.299 199.271 293.816 195.754 293.816 191.694C293.816 182.374 299.601 177.714 311.171 177.714H316.066V176.856C316.066 175.369 315.799 174.426 315.265 174.026C314.79 173.568 313.633 173.34 311.794 173.34C309.539 173.34 306.335 173.797 302.182 174.712ZM309.302 190.493C309.302 191.751 309.658 192.723 310.37 193.41C311.082 194.039 311.972 194.353 313.04 194.353C314.167 194.353 315.176 193.924 316.066 193.067V186.462H313.574C310.726 186.462 309.302 187.806 309.302 190.493ZM362.044 205.76C362.044 206.161 359.344 206.361 353.945 206.361C348.545 206.246 345.846 206.018 345.846 205.675V177.199H343.443C342.493 177.199 341.722 176.656 341.129 175.57C340.595 174.426 340.328 173.025 340.328 171.367C340.328 165.192 342.226 162.104 346.024 162.104C348.694 162.104 350.919 162.905 352.699 164.505C354.479 166.049 355.369 167.822 355.369 169.823C356.615 167.479 358.276 165.62 360.353 164.248C362.489 162.819 364.654 162.104 366.85 162.104C370.291 162.104 372.368 162.962 373.08 164.677C373.258 165.135 373.347 165.821 373.347 166.735C373.347 167.593 373.05 169.166 372.457 171.453C371.923 173.74 371.359 175.398 370.766 176.427C370.172 177.457 369.816 177.971 369.698 177.971C369.579 177.971 369.015 177.771 368.007 177.371C367.057 176.913 366.197 176.685 365.426 176.685C363.171 176.685 362.044 178.4 362.044 181.831V205.76ZM396.441 205.332C396.441 205.732 394.305 205.932 390.033 205.932C384.1 205.76 381.133 205.446 381.133 204.988V177.199H378.819C377.276 177.199 376.268 175.941 375.793 173.425C375.674 172.682 375.615 171.939 375.615 171.195C375.615 169.423 375.971 167.65 376.683 165.878C377.751 163.362 379.412 162.104 381.667 162.104C383.922 162.104 385.939 162.618 387.719 163.648C389.499 164.677 390.686 165.706 391.279 166.735C395.017 163.648 399.467 162.104 404.629 162.104C409.791 162.104 413.529 163.447 415.843 166.135C418.157 168.823 419.314 173.225 419.314 179.343V205.074C419.314 205.76 416.763 206.103 411.66 206.103C406.617 206.103 404.095 205.76 404.095 205.074V180.287C404.095 177.428 403.057 175.998 400.98 175.998C400.387 175.998 399.556 176.256 398.488 176.77C397.42 177.228 396.738 177.571 396.441 177.8V205.332Z" fill="white"/>
<path d="M80.1996 20.8721C75.5823 21.818 71.5435 24.4929 68.9723 28.3084C66.4011 32.124 65.508 36.7675 66.4896 41.2176L53.4311 43.8924C49.9681 44.6017 46.939 46.6079 45.0108 49.4695C43.0823 52.3312 42.4126 55.8139 43.1487 59.1516L45.9244 71.7357C41.3066 72.6817 37.268 75.3564 34.6968 79.1723C32.1256 82.9877 31.2326 87.6313 32.2141 92.0814C33.1956 96.5316 35.9713 100.423 39.9306 102.901C43.8898 105.379 48.7083 106.24 53.3261 105.294L56.1016 117.878C56.8376 121.216 58.9193 124.135 61.8888 125.993C64.8583 127.851 68.4721 128.497 71.9356 127.788L84.9936 125.112C85.9753 129.563 88.7508 133.455 92.7104 135.933C96.6695 138.411 101.488 139.271 106.106 138.325C110.723 137.379 114.762 134.704 117.333 130.889C119.904 127.073 120.797 122.43 119.816 117.979L132.874 115.305C136.337 114.595 139.366 112.589 141.295 109.728C143.223 106.866 143.893 103.383 143.157 100.046L138.531 79.0719L129.825 80.8551C127.516 81.3281 125.107 80.8975 123.127 79.659C121.148 78.4201 119.76 76.474 119.269 74.2487C118.778 72.0239 119.225 69.7021 120.51 67.7942C121.796 65.8866 123.815 64.5491 126.125 64.0761L134.83 62.2929L130.204 41.3191C129.468 37.9816 127.386 35.0626 124.417 33.2042C121.447 31.3458 117.833 30.7003 114.37 31.4098L101.312 34.0846C100.33 29.6346 97.5547 25.7425 93.595 23.2647C89.6359 20.7869 84.8174 19.9262 80.1996 20.8721Z" fill="url(#paint0_linear_3_18)"/>
<path d="M75.6811 115.053C75.1066 115.171 74.566 115.073 74.0587 114.756C73.5514 114.44 73.2363 114.005 73.113 113.452L62.2657 64.6936C62.1424 64.1399 62.2448 63.6189 62.5732 63.13C62.9012 62.6411 63.3524 62.3375 63.9269 62.2187L103.4 54.0629C103.975 53.9441 104.515 54.0432 105.023 54.3592C105.53 54.6757 105.845 55.1106 105.968 55.6638L108.521 67.1363C108.644 67.6899 108.541 68.211 108.213 68.6999C107.885 69.1887 107.434 69.4928 106.859 69.6112L84.4596 74.2393L85.7025 79.8246L106.536 75.5202C107.11 75.4014 107.651 75.5005 108.158 75.8166C108.665 76.1326 108.98 76.5675 109.103 77.1211L111.639 88.5181C111.762 89.0718 111.66 89.5928 111.331 90.0817C111.003 90.5706 110.552 90.8742 109.978 90.993L89.1446 95.2973L92.3014 109.487C92.4247 110.041 92.3219 110.562 91.9939 111.051C91.666 111.539 91.2143 111.843 90.6402 111.962L75.6811 115.053ZM85.7061 61.4292C84.7436 61.5231 84.0445 61.6938 83.6079 61.9417C83.1718 62.19 82.8341 62.7595 82.5955 63.6511C82.357 64.5422 82.3926 65.1928 82.7023 65.6027C83.0116 66.0123 83.5732 66.4488 84.3862 66.9124C85.2629 67.4155 85.9637 67.7444 86.4897 67.8988C87.0157 68.0536 87.6721 67.8126 88.4589 67.1762C89.287 66.4789 89.6968 65.8678 89.6897 65.3433C89.6822 64.8184 89.4619 64.0743 89.0293 63.1111C88.6822 62.2882 88.272 61.7937 87.798 61.6286C87.3134 61.4129 86.6161 61.3464 85.7061 61.4292ZM67.7708 67.3456C67.6925 66.9935 67.6311 66.7164 67.5861 66.5153C67.5412 66.3142 67.3249 66.201 66.9369 66.1757C66.2137 66.1148 65.7305 66.3987 65.4884 67.0278C65.3055 67.4339 65.2161 67.768 65.2196 68.0304C65.2125 68.2427 65.3785 68.4979 65.718 68.7959C66.3744 69.2921 67.0401 69.3384 67.7152 68.9362C68.0471 68.7093 68.1588 68.476 68.0507 68.235C67.9426 67.9944 67.8491 67.6976 67.7708 67.3456ZM101.443 59.9939C101.182 60.0475 101.042 60.1555 101.023 60.3172C101.005 60.4789 100.966 60.671 100.906 60.894C100.857 61.1672 100.798 61.3902 100.727 61.5626C100.656 61.735 100.748 61.9005 101.001 62.0587C101.255 62.2166 101.454 62.2543 101.6 62.1715C101.734 62.0386 101.946 61.8894 102.237 61.7242C102.588 61.3361 102.698 60.9712 102.568 60.6298C102.351 60.1482 101.976 59.936 101.443 59.9939ZM95.5522 62.2371C95.347 61.8057 95.0822 61.5973 94.7578 61.6119C94.4855 61.6153 94.0828 61.6458 93.5492 61.7037C93.1202 61.7397 92.8127 61.8293 92.6263 61.973C92.4398 62.1171 92.2867 62.4117 92.1675 62.8573C92.0892 63.2419 92.1248 63.5241 92.2738 63.7038C92.4234 63.8835 92.6881 64.0919 93.0686 64.3291C93.5532 64.5448 93.9226 64.7317 94.1762 64.8896C94.4708 64.9869 94.825 64.8608 95.2393 64.5122C95.642 64.1133 95.8677 63.7771 95.9157 63.504C95.9531 63.1806 95.8321 62.7582 95.5522 62.2371ZM72.5319 67.388C72.1736 67.2516 71.879 67.1547 71.6476 67.0973C71.4688 67.0286 71.2765 67.1474 71.0714 67.4532C70.8142 67.7693 70.6557 68.039 70.5961 68.2616C70.5365 68.4846 70.6557 68.7758 70.9543 69.1351C71.1893 69.4551 71.4114 69.5931 71.6201 69.5503C71.8813 69.4962 72.1888 69.4062 72.543 69.2805C72.8972 69.1549 73.1473 69.0502 73.2928 68.9679C73.4268 68.8349 73.5073 68.5815 73.5331 68.2075C73.518 67.8949 73.4214 67.7045 73.2421 67.6359C73.0632 67.5677 72.8264 67.4854 72.5319 67.388ZM101.936 64.7866L101.444 64.4144L100.946 64.754L100.8 65.5736L101.774 65.5307L101.936 64.7866ZM80.504 68.9777C79.9482 68.9349 79.5566 69.0155 79.3292 69.2205C79.1014 69.4255 78.902 69.7561 78.7307 70.2124C78.5291 70.7806 78.4361 71.2206 78.4508 71.5337C78.4548 71.7957 78.684 72.0907 79.1392 72.4175C79.5419 72.7555 79.9002 72.8918 80.2134 72.8271C80.5156 72.7121 80.9108 72.5252 81.3994 72.2666C81.8244 71.9681 82.1247 71.7219 82.3001 71.5277C82.5163 71.2725 82.5421 70.8986 82.3784 70.4062C82.203 69.8637 81.9886 69.5134 81.7349 69.3551C81.5222 69.136 81.1119 69.0099 80.504 68.9777ZM68.4094 75.7398L67.9897 76.0631L67.8109 76.7317L68.8401 76.2034L68.4094 75.7398ZM76.3758 74.7256L75.3518 74.542L74.938 75.2591L75.464 75.7822L76.0905 75.6527L76.3758 74.7256ZM75.7052 81.6532C75.5263 80.8482 75.2931 80.2911 75.0056 79.9819C74.7075 79.6226 74.1441 79.4232 73.3164 79.3837C72.4246 79.3048 71.7869 79.3841 71.4029 79.6213C71.0189 79.8584 70.67 80.3778 70.3571 81.1793C69.9802 81.9413 69.8423 82.549 69.9433 83.0019C70.0848 83.3934 70.4635 83.8677 71.0789 84.4248C71.7353 84.921 72.2724 85.1255 72.6903 85.0393C73.1081 84.9531 73.6541 84.7087 74.3292 84.306C75.0154 83.9539 75.4613 83.625 75.6664 83.3192C75.86 82.9633 75.8734 82.4079 75.7052 81.6532ZM81.6018 82.0138L81.0256 82.3698L80.8805 83.1893L81.7923 83.2377L82.3628 82.4881L81.6018 82.0138ZM89.7921 82.3745C89.2327 82.0687 88.6992 82.1266 88.1923 82.5469C87.778 82.8955 87.4576 83.1726 87.2298 83.3775C86.9912 83.5319 86.9539 83.8553 87.1181 84.348C87.3348 84.8296 87.6049 85.0629 87.9293 85.0488C88.2426 84.984 88.6662 84.9227 89.1993 84.8652C89.6804 84.8185 90.0257 84.7734 90.2344 84.7301C90.484 84.6259 90.6687 84.351 90.788 83.9055C90.9072 83.4595 90.8663 83.1524 90.6647 82.9834C90.5156 82.8038 90.2246 82.6009 89.7921 82.3745ZM90.302 88.3479C90.201 87.895 90.1432 87.5121 90.1285 87.1994C90.1134 86.8868 89.8539 86.7037 89.3506 86.6496C88.7948 86.6068 88.3716 86.6677 88.0806 86.8332C87.7785 86.9481 87.5212 87.2646 87.309 87.7822C87.0851 88.2492 87.1056 88.5872 87.3704 88.7956C87.624 88.9538 87.9524 89.2017 88.3552 89.5396C88.6836 89.7875 88.9372 89.9458 89.1161 90.0139C89.336 90.0212 89.6176 89.9367 89.9607 89.7605C90.3038 89.5842 90.4529 89.3955 90.4084 89.1944C90.4155 88.9821 90.3804 88.7 90.302 88.3479ZM82.4304 89.4217C81.8938 89.2167 81.4741 89.1717 81.172 89.287C80.8698 89.402 80.5285 89.7095 80.148 90.2091C79.7155 90.7194 79.4022 91.1525 79.2086 91.5085C79.0556 91.8031 79.1508 92.2306 79.4939 92.7916C79.9006 93.3915 80.2976 93.7042 80.6856 93.7295C81.1146 93.6934 81.6628 93.5802 82.3303 93.3898C82.8937 93.2204 83.2572 93.0137 83.421 92.7693C83.5741 92.4747 83.6671 92.0342 83.7009 91.4484C83.7343 90.8626 83.6653 90.4295 83.4935 90.1495C83.3743 89.8583 83.0201 89.6155 82.4304 89.4217ZM74.1121 93.2719L73.5696 92.6736L72.9822 93.3474L73.3235 94.1454L74.185 93.9675L74.1121 93.2719ZM96.2206 88.0721C95.885 88.0365 95.6558 88.1103 95.5326 88.2934C95.4618 88.4658 95.3501 88.6995 95.197 88.9941C94.9621 89.4114 95.0199 89.7939 95.3706 90.1426C95.6465 90.4016 95.8592 90.6208 96.0083 90.8004C96.1578 90.9801 96.4039 90.9818 96.747 90.8056C97.1421 90.6186 97.3437 90.4192 97.3508 90.2074C97.3584 89.9951 97.3175 89.688 97.228 89.2853C97.1381 88.8826 97.0505 88.6112 96.965 88.4714C96.868 88.2805 96.6197 88.1476 96.2206 88.0721ZM103.398 87.9315C103.134 87.723 102.912 87.5845 102.733 87.5163C102.554 87.4482 102.319 87.4966 102.028 87.6621C101.644 87.8993 101.332 88.0953 101.094 88.2497C100.907 88.3933 100.864 88.6918 100.965 89.1447C101.129 89.637 101.312 89.9676 101.513 90.1366C101.756 90.2447 102.149 90.2948 102.694 90.2875C103.197 90.3412 103.574 90.3163 103.824 90.2121C104.126 90.0967 104.363 89.8111 104.534 89.3548C104.717 88.9483 104.661 88.697 104.366 88.6C104.113 88.4418 103.79 88.2188 103.398 87.9315ZM79.4387 97.6976C79.2447 97.3168 79.0057 97.1028 78.7223 97.056C78.4913 96.9986 78.1665 97.0131 77.749 97.0993C77.1225 97.2288 76.7456 97.6225 76.6192 98.2799C76.552 98.7152 76.5204 99.0639 76.524 99.3259C76.5689 99.5275 76.8074 99.741 77.24 99.9675C77.6618 100.144 77.9769 100.21 78.1856 100.167C78.4357 100.063 78.7414 99.8418 79.1032 99.5039C79.4124 99.1767 79.5971 98.9018 79.6568 98.6788C79.7689 98.4451 79.6959 98.1183 79.4387 97.6976ZM83.4504 104.684C83.1335 103.75 82.8407 103.047 82.572 102.577C82.3032 102.106 81.6766 101.867 80.6923 101.86C79.4877 101.845 78.5888 101.978 77.9956 102.259C77.4549 102.529 77.0037 103.201 76.6419 104.275C76.3028 105.451 76.2262 106.335 76.4131 106.928C76.6517 107.51 77.2578 108.148 78.2314 108.842C79.1303 109.445 79.8557 109.638 80.4075 109.418C80.9486 109.149 81.6699 108.71 82.5724 108.103C83.3298 107.578 83.7419 107.098 83.8086 106.663C83.8647 106.178 83.7454 105.518 83.4504 104.684Z" fill="white"/>
<path d="M364.595 25.1606C369.213 26.1064 373.251 28.7814 375.823 32.5969C378.393 36.4124 379.286 41.056 378.305 45.5061L391.363 48.1809C394.827 48.8902 397.855 50.8963 399.784 53.758C401.712 56.6197 402.382 60.1024 401.646 63.4401L398.87 76.0241C403.488 76.9702 407.527 79.6449 410.098 83.4608C412.669 87.2762 413.562 91.9197 412.58 96.3699C411.599 100.82 408.823 104.712 404.864 107.19C400.905 109.668 396.086 110.528 391.469 109.582L388.693 122.167C387.957 125.504 385.875 128.423 382.906 130.281C379.936 132.14 376.322 132.785 372.859 132.076L359.801 129.401C358.82 133.851 356.044 137.743 352.084 140.221C348.125 142.699 343.307 143.559 338.689 142.614C334.071 141.668 330.032 138.993 327.462 135.177C324.891 131.362 323.997 126.718 324.979 122.268L311.921 119.593C308.457 118.884 305.428 116.878 303.5 114.016C301.572 111.154 300.902 107.672 301.638 104.334L306.264 83.3604L314.97 85.1435C317.278 85.6166 319.688 85.186 321.667 83.9475C323.647 82.7085 325.035 80.7625 325.526 78.5372C326.016 76.3123 325.57 73.9905 324.284 72.0826C322.998 70.1751 320.979 68.8375 318.67 68.3645L309.965 66.5814L314.591 45.6078C315.327 42.27 317.409 39.351 320.378 37.4926C323.348 35.6343 326.962 34.9888 330.425 35.6982L343.483 38.3731C344.465 33.923 347.24 30.031 351.199 27.5531C355.159 25.0753 359.977 24.2147 364.595 25.1606Z" fill="url(#paint1_linear_3_18)"/>
<path d="M335.186 106.81C334.614 106.685 334.166 106.376 333.843 105.883C333.521 105.391 333.425 104.869 333.555 104.317L344.98 55.6814C345.11 55.1294 345.43 54.698 345.941 54.3871C346.453 54.0766 346.994 53.984 347.567 54.1088L363.192 57.5177C363.765 57.6429 364.212 57.9513 364.535 58.444C364.857 58.9363 364.953 59.4586 364.823 60.0106L356.546 95.245L378.186 99.9666C378.759 100.091 379.207 100.4 379.529 100.892C379.852 101.385 379.948 101.907 379.818 102.459L377.147 113.828C377.018 114.38 376.697 114.811 376.186 115.122C375.675 115.433 375.133 115.525 374.56 115.4L335.186 106.81ZM355.394 60.6444L354.67 61.2778L354.476 62.1063L355.449 62.16L355.92 61.5506L355.394 60.6444ZM349.025 60.8378C348.5 60.5119 348.072 60.234 347.743 60.0037C347.477 59.7348 347.104 59.8116 346.621 60.234C346.15 60.6062 346.01 60.9712 346.199 61.3293C346.401 61.6372 346.625 62.0815 346.872 62.663C347.049 63.0713 347.231 63.3483 347.415 63.4941C347.652 63.6515 348.023 63.7059 348.527 63.6575C348.979 63.5979 349.28 63.4791 349.432 63.3007C349.583 63.1227 349.712 62.8079 349.818 62.3564C349.912 61.9545 349.899 61.6616 349.778 61.4768C349.669 61.2422 349.418 61.0291 349.025 60.8378ZM353.85 64.423L353.654 63.5095L352.688 63.7737L352.416 64.5851L353.222 64.9985L353.85 64.423ZM356.665 64.3248C356.208 64.1725 355.866 64.2296 355.639 64.4967C355.488 64.6747 355.421 64.845 355.437 65.0066C355.518 65.1297 355.644 65.2897 355.818 65.4857C356.071 65.8047 356.366 65.9479 356.702 65.9158C356.998 65.8223 357.209 65.7365 357.337 65.6589C357.517 65.5924 357.616 65.4029 357.635 65.0907C357.602 64.7665 357.507 64.5877 357.351 64.5538C357.194 64.5195 356.966 64.4431 356.665 64.3248ZM360.303 67.0183L359.166 66.6118L358.329 67.379L358.898 68.4528L360.098 68.2397L360.303 67.0183ZM352.168 69.8337C351.724 69.1566 351.277 68.8478 350.825 68.9074C350.373 68.9675 349.741 69.0931 348.929 69.2857C348.13 69.4276 347.492 69.5786 347.016 69.7385C346.604 69.8599 346.362 70.3085 346.29 71.0838C346.217 71.8596 346.339 72.3875 346.657 72.6675C347.026 72.9596 347.61 73.2714 348.408 73.6037C349.05 73.9022 349.524 73.9794 349.831 73.8353C350.151 73.641 350.564 73.2829 351.07 72.7602C351.588 72.1872 351.998 71.7224 352.301 71.3664C352.603 71.0105 352.559 70.4993 352.168 69.8337ZM357.187 72.5908C357.026 72.3446 356.873 72.1795 356.728 72.095C356.648 71.9719 356.465 71.9321 356.182 71.9758C355.602 72.113 355.279 72.4385 355.213 72.9519C355.176 73.5767 355.406 73.9961 355.903 74.2101C356.204 74.3285 356.424 74.3237 356.563 74.1959C356.755 74.0797 356.959 73.9129 357.173 73.6959C357.412 73.3786 357.417 73.0102 357.187 72.5908ZM349.714 77.1335C349.443 76.6528 349.146 76.4032 348.822 76.3852C348.509 76.317 348.063 76.3513 347.484 76.489C346.916 76.576 346.452 76.6858 346.092 76.8183C345.744 76.9007 345.526 77.2489 345.436 77.8626C345.335 78.5264 345.353 79.0316 345.491 79.3781C345.628 79.7246 346.044 80.0531 346.738 80.3628C347.42 80.7226 347.955 80.892 348.343 80.8709C348.783 80.8615 349.288 80.5759 349.858 80.0145C350.364 79.4918 350.549 79.0569 350.411 78.7104C350.285 78.3137 350.053 77.788 349.714 77.1335ZM357.119 84.7644L356.27 84.1838L355.426 84.6323L355.508 85.6796L356.534 85.5076L357.119 84.7644ZM347.068 84.5504C347.094 83.9754 347.026 83.565 346.865 83.3188C346.703 83.0726 346.342 82.8616 345.781 82.6867C345.272 82.5229 344.904 82.5743 344.677 82.8415C344.514 83.0696 344.275 83.387 343.961 83.7931C343.71 84.1606 343.588 84.4505 343.592 84.6624C343.597 84.8746 343.721 85.1654 343.962 85.5346C344.175 85.7924 344.398 85.8936 344.63 85.8387C344.862 85.7838 345.158 85.6899 345.518 85.5574C345.941 85.3858 346.289 85.3035 346.561 85.3104C346.897 85.2782 347.066 85.0247 347.068 84.5504ZM350.125 89.0164L349.44 88.7874L349.064 89.3385L349.338 90.2691L350.122 89.7279L350.125 89.0164ZM341.541 89.2013L341.249 88.3457L340.283 88.6103L339.975 89.5718L340.931 89.7009L341.541 89.2013ZM352.294 96.2168C352.402 95.2905 352.181 94.715 351.632 94.4894C351.134 94.2754 350.441 93.9658 349.551 93.5605C348.764 93.178 348.137 92.9352 347.668 92.8332C347.199 92.7311 346.648 92.9798 346.014 93.5802C345.357 94.2814 344.995 94.8882 344.929 95.4015C344.863 95.9149 345.067 96.5659 345.538 97.3545C346.01 98.1436 346.474 98.614 346.931 98.7667C347.44 98.9305 348.153 98.9275 349.069 98.7581C350.1 98.5613 350.866 98.3323 351.365 98.072C351.864 97.8116 352.174 97.1933 352.294 96.2168ZM370.457 103.504C370.316 102.47 370.003 101.822 369.518 101.558C369.044 101.243 368.28 100.998 367.227 100.82C366.069 100.621 365.16 100.528 364.5 100.542C363.852 100.506 363.241 101.006 362.669 102.042C362.121 102.978 362.098 103.659 362.6 104.085C363.154 104.522 363.835 105.119 364.643 105.876C365.347 106.61 365.898 107.179 366.295 107.582C366.757 107.947 367.45 107.913 368.372 107.481C369.423 106.971 370.065 106.452 370.299 105.923C370.585 105.405 370.637 104.598 370.457 103.504ZM357.05 99.3915C356.612 98.9267 356.08 98.8632 355.453 99.2011C355.029 99.3726 354.742 99.5472 354.59 99.7252C354.45 99.8534 354.418 100.11 354.491 100.495C354.553 100.931 354.651 101.216 354.783 101.35C354.968 101.496 355.295 101.62 355.764 101.723C356.128 101.802 356.354 101.772 356.441 101.633C356.593 101.455 356.762 101.202 356.949 100.873C357.135 100.544 357.252 100.28 357.299 100.079C357.399 99.8894 357.316 99.6604 357.05 99.3915ZM361.206 100.931C360.935 100.45 360.516 100.253 359.948 100.34C359.664 100.384 359.499 100.506 359.451 100.707C359.416 100.857 359.363 101.083 359.293 101.384C359.238 101.848 359.382 102.169 359.723 102.349C360.076 102.479 360.345 102.616 360.529 102.762C360.766 102.92 361.024 102.87 361.303 102.615C361.594 102.309 361.711 102.044 361.654 101.821C361.597 101.597 361.447 101.301 361.206 100.931ZM375.421 104.745L375.154 104.133L374.302 104.264L374.473 104.934L374.985 105.204L375.421 104.745ZM375.264 107.164C375.23 106.84 375.109 106.656 374.901 106.61C374.745 106.576 374.536 106.531 374.276 106.474C373.911 106.394 373.604 106.538 373.353 106.906C373.23 107.195 373.302 107.475 373.567 107.744C373.78 108.001 373.927 108.192 374.007 108.315C374.14 108.449 374.328 108.464 374.572 108.359C375.123 108.11 375.354 107.712 375.264 107.164ZM347.58 101.599C347.234 101.207 346.931 100.983 346.671 100.926C346.422 100.819 346.034 100.84 345.506 100.989C345.019 101.199 344.713 101.449 344.591 101.738C344.531 101.989 344.527 102.358 344.577 102.844C344.587 103.268 344.717 103.533 344.965 103.641C345.225 103.697 345.564 103.771 345.981 103.862C346.397 103.953 346.736 104.027 346.996 104.084C347.257 104.141 347.512 103.985 347.763 103.618C348.025 103.2 348.134 102.854 348.088 102.581C348.095 102.318 347.926 101.991 347.58 101.599ZM353.955 104.177C353.749 103.657 353.521 103.344 353.273 103.237C353.024 103.13 352.622 103.095 352.065 103.132C351.509 103.169 351.077 103.259 350.769 103.403C350.526 103.508 350.345 103.812 350.227 104.314C350.11 104.816 350.163 105.17 350.388 105.378C350.625 105.535 350.96 105.74 351.393 105.993C351.775 106.234 352.089 106.408 352.338 106.516C352.598 106.572 352.9 106.453 353.243 106.159C353.702 105.837 353.987 105.556 354.098 105.316C354.221 105.027 354.173 104.647 353.955 104.177ZM360.155 105.055C359.733 104.752 359.319 104.767 358.912 105.1C358.453 105.422 358.313 105.787 358.491 106.196C358.588 106.481 358.714 106.64 358.871 106.674C359.027 106.708 359.267 106.735 359.592 106.753C360.044 106.693 360.337 106.493 360.472 106.153C360.642 105.663 360.536 105.296 360.155 105.055ZM373.487 110.18L373.107 109.701L372.333 109.849L372.565 110.612L373.268 110.765L373.487 110.18ZM348.51 105.68L347.459 105.609L347.265 106.437L347.784 107.025L348.315 106.508L348.51 105.68Z" fill="white"/>
<path d="M178.997 35.5514C178.817 33.7654 179.027 31.9629 179.612 30.2596C180.198 28.5563 181.147 26.99 182.399 25.6613C183.65 24.3326 185.176 23.2708 186.879 22.5442C188.581 21.8176 190.423 21.4423 192.284 21.4423H213.6C214.78 21.4423 215.912 21.8942 216.747 22.6984C217.581 23.5026 218.05 24.5934 218.05 25.7308V29.0072C218.05 34.9767 213.627 39.1451 210.289 41.6067C209.892 41.8872 209.546 42.2292 209.266 42.6187L209.159 42.8332L209.15 42.8846V42.9104L209.177 42.9961C209.207 43.0819 209.313 43.2333 209.497 43.4507C210.184 44.1442 210.999 44.7085 211.9 45.1146C214.401 46.3154 218.139 47.1731 222.5 47.1731C226.879 47.1731 230.617 46.3154 233.091 45.1146C233.995 44.7094 234.814 44.145 235.503 43.4507C235.635 43.3143 235.743 43.1578 235.823 42.9876L235.85 42.9018V42.8332L235.743 42.6187C235.462 42.2292 235.117 41.8872 234.72 41.6067C231.382 39.1451 226.959 34.9767 226.959 29.0072V25.7308C226.959 24.5949 227.427 23.5054 228.259 22.7014C229.092 21.8974 230.221 21.4446 231.4 21.4423H252.715C254.577 21.4423 256.419 21.8176 258.121 22.5442C259.824 23.2708 261.35 24.3326 262.601 25.6613C263.853 26.99 264.802 28.5563 265.388 30.2596C265.973 31.9629 266.183 33.7654 266.003 35.5514L263.84 60.0385H265.95C267.685 60.0385 269.688 58.7777 271.957 55.9216C273.826 53.5715 276.656 51.4616 280.35 51.4616C285.405 51.4616 288.778 55.2954 290.621 58.8549C292.605 62.6716 293.7 67.6462 293.7 72.9039C293.7 78.1615 292.605 83.1361 290.621 86.9529C288.778 90.5123 285.405 94.3462 280.35 94.3462C276.656 94.3462 273.826 92.2362 271.957 89.8862C269.688 87.0301 267.685 85.7692 265.95 85.7692H263.84L266.003 110.256C266.183 112.043 265.973 113.845 265.388 115.548C264.802 117.251 263.853 118.818 262.601 120.146C261.35 121.475 259.824 122.537 258.121 123.264C256.419 123.99 254.577 124.365 252.715 124.365H231.4C230.22 124.365 229.088 123.913 228.253 123.109C227.419 122.305 226.95 121.214 226.95 120.077V116.801C226.95 110.831 231.373 106.663 234.711 104.201C235.108 103.921 235.453 103.578 235.734 103.189L235.841 102.975L235.85 102.923V102.897L235.823 102.812C235.743 102.644 235.634 102.491 235.503 102.357C234.816 101.664 234.001 101.099 233.1 100.693C230.599 99.4923 226.861 98.6346 222.5 98.6346C218.139 98.6346 214.383 99.4923 211.909 100.693C211.005 101.098 210.186 101.663 209.497 102.357C209.365 102.493 209.257 102.65 209.177 102.82L209.15 102.906V102.923L209.159 102.975L209.266 103.189C209.408 103.421 209.711 103.772 210.289 104.201C213.627 106.663 218.05 110.831 218.05 116.801V120.077C218.05 121.214 217.581 122.305 216.747 123.109C215.912 123.913 214.78 124.365 213.6 124.365H192.284C190.423 124.365 188.581 123.99 186.879 123.264C185.176 122.537 183.65 121.475 182.399 120.146C181.147 118.818 180.198 117.251 179.612 115.548C179.027 113.845 178.817 112.043 178.997 110.256L181.168 85.7692H179.05C177.315 85.7692 175.312 87.0301 173.043 89.8862C171.174 92.2362 168.343 94.3462 164.65 94.3462C159.595 94.3462 156.222 90.5123 154.379 86.9529C152.395 83.1361 151.3 78.1615 151.3 72.9039C151.3 67.6462 152.395 62.6716 154.379 58.8549C156.222 55.2954 159.595 51.4616 164.65 51.4616C168.343 51.4616 171.174 53.5715 173.043 55.9216C175.312 58.7777 177.315 60.0385 179.05 60.0385H181.168L178.997 35.5514Z" fill="url(#paint2_linear_3_18)"/>
<path d="M208.942 90.8266C208.55 90.8339 208.209 90.7027 207.919 90.4338C207.629 90.1645 207.48 89.8411 207.472 89.4637L207.367 84.113C207.363 83.9072 207.408 83.5118 207.503 82.9264C207.598 82.3071 207.979 81.7685 208.647 81.3101L209.226 80.8877C212.912 78.2121 215.983 75.9598 218.439 74.1303C220.931 72.3005 222.787 70.7395 224.008 69.4473C225.264 68.1205 225.882 66.9596 225.862 65.9647C225.853 65.4844 225.755 65.0229 225.568 64.5804C225.381 64.1378 224.825 63.9251 223.9 63.9418C223.188 63.9551 222.639 64.1365 222.254 64.4869C221.869 64.8025 221.591 65.1679 221.422 65.583C221.252 65.9977 221.116 66.3434 221.015 66.62C220.846 67.1033 220.568 67.4343 220.18 67.6132C219.826 67.7568 219.401 67.8332 218.903 67.8426L208.865 68.0266C208.545 68.0326 208.258 67.9348 208.005 67.7332C207.787 67.4974 207.674 67.2246 207.668 66.9163C207.688 64.308 208.391 62.0476 209.777 60.1345C211.163 58.1876 213.056 56.6604 215.455 55.5527C217.855 54.445 220.585 53.8631 223.646 53.8069C226.885 53.7473 229.706 54.159 232.109 55.0415C234.511 55.8894 236.388 57.1588 237.739 58.8497C239.09 60.5406 239.789 62.6038 239.837 65.0392C239.875 66.9262 239.429 68.684 238.5 70.314C237.57 71.9437 236.248 73.5119 234.533 75.0189C232.853 76.4911 230.871 78.02 228.588 79.6058L228.22 79.87L239.485 79.6637C239.877 79.6565 240.218 79.7873 240.508 80.0566C240.798 80.3259 240.947 80.6488 240.954 81.0262L241.109 88.8471C241.116 89.2244 240.98 89.5529 240.7 89.8326C240.421 90.1122 240.086 90.2554 239.694 90.2627L208.942 90.8266ZM222.254 56.3542C221.929 56.0858 221.572 56.0579 221.184 56.271C220.903 56.4477 220.656 56.5725 220.444 56.645C220.267 56.717 220.2 56.9237 220.243 57.2664C220.357 57.6416 220.486 57.8796 220.631 57.98C220.811 58.0795 221.097 58.1601 221.49 58.2214C221.811 58.2497 222.023 58.1944 222.128 58.0555C222.231 57.8818 222.351 57.6566 222.488 57.3796C222.658 56.9988 222.581 56.6574 222.254 56.3542ZM228.227 58.6125C228.075 58.1005 227.925 57.709 227.777 57.4371C227.665 57.1643 227.323 57.0164 226.753 56.9924C226.183 56.9688 225.776 57.079 225.531 57.3239C225.322 57.5336 225.115 57.8977 224.912 58.4161C224.743 58.8651 224.749 59.1911 224.931 59.3935C225.149 59.5955 225.456 59.83 225.853 60.0972C226.179 60.3657 226.449 60.5325 226.664 60.5972C226.915 60.6611 227.216 60.5698 227.567 60.3232C227.953 60.0758 228.18 59.8489 228.248 59.6418C228.35 59.3995 228.343 59.0564 228.227 58.6125ZM219.196 58.3664L218.658 58.1704L218.187 58.6421L218.678 59.1996L219.422 58.9801L219.196 58.3664ZM215.465 61.4717C215.206 60.9275 214.983 60.5196 214.8 60.2486C214.616 59.9433 214.222 59.8129 213.618 59.8583C213.013 59.9038 212.661 60.0989 212.561 60.4441C212.46 60.7546 212.344 61.1856 212.212 61.7371C212.082 62.3229 211.966 62.7882 211.866 63.133C211.801 63.4431 212.021 63.748 212.525 64.0477C213.066 64.381 213.496 64.51 213.815 64.4358C214.169 64.3265 214.608 64.061 215.134 63.6395C215.554 63.2887 215.762 62.9761 215.757 62.7016C215.786 62.3924 215.689 61.9824 215.465 61.4717ZM230.094 61.2032L229.507 61.2139L229.303 61.6809L229.787 61.8782L230.211 61.7157L230.094 61.2032ZM234.743 61.3241L234.156 61.3349L233.576 61.7058L234.12 62.2106L234.757 61.9927L234.743 61.3241ZM224.389 61.7195L224.072 61.8799L224.185 62.1866L224.561 62.2826L224.66 61.9207L224.389 61.7195ZM237.156 61.7946L236.626 62.0099L236.368 62.4782L236.904 62.5712L237.434 62.3555L237.156 61.7946ZM228.385 63.9109L227.897 63.5083L227.585 63.9774L227.596 64.492L228.127 64.3278L228.385 63.9109ZM235.122 64.3025C234.794 63.8964 234.47 63.7137 234.151 63.754C233.866 63.7591 233.476 63.8522 232.981 64.0327C232.521 64.1785 232.204 64.3557 232.03 64.5649C231.891 64.739 231.826 65.0662 231.836 65.5466C231.845 65.9921 231.94 66.3168 232.122 66.5192C232.304 66.7216 232.628 66.8871 233.093 67.0162C233.702 67.1766 234.185 67.3048 234.543 67.4013C234.901 67.4974 235.253 67.2851 235.599 66.7641C235.944 66.243 236.043 65.8296 235.894 65.5234C235.781 65.2168 235.524 64.8098 235.122 64.3025ZM228.106 68.7029L227.791 68.9662L227.748 69.5331L228.333 69.368L228.431 68.9546L228.106 68.7029ZM235.751 69.0777C235.568 68.8405 235.388 68.7067 235.209 68.6758C235.066 68.6441 234.835 68.6827 234.517 68.7912C234.305 68.8637 234.2 68.9859 234.203 69.1574C234.242 69.2938 234.264 69.4825 234.268 69.7222C234.273 69.9624 234.241 70.1691 234.174 70.3419C234.142 70.5139 234.251 70.6494 234.502 70.7476C234.788 70.8111 234.965 70.7733 235.034 70.6348C235.138 70.4959 235.259 70.3218 235.397 70.1133C235.571 69.9045 235.71 69.7304 235.814 69.591C235.954 69.4512 235.933 69.2801 235.751 69.0777ZM229.215 70.7931L228.677 70.5971L228.368 71.1687L228.859 71.6748L229.385 71.2532L229.215 70.7931ZM225.37 70.8119L224.838 70.9247L225.01 71.4878L225.598 71.5285L225.37 70.8119ZM232.029 72.6457C231.809 72.3069 231.592 72.1392 231.379 72.1431C231.165 72.1469 230.846 72.2044 230.421 72.315C230.101 72.3897 229.89 72.4964 229.786 72.6354C229.682 72.7748 229.616 73.0162 229.587 73.3597C229.557 73.6693 229.58 73.9091 229.654 74.0793C229.728 74.2148 229.927 74.3486 230.25 74.4799C230.537 74.6119 230.751 74.6424 230.892 74.5712C231.068 74.4648 231.261 74.307 231.471 74.0973C231.714 73.8181 231.923 73.5913 232.098 73.4167C232.273 73.2418 232.249 72.9849 232.029 72.6457ZM226.595 76.0396C226.484 75.8016 226.339 75.684 226.161 75.6875C225.982 75.6562 225.751 75.6605 225.467 75.6999C225.112 75.7407 224.81 75.7634 224.56 75.7681C224.31 75.7385 224.171 75.9126 224.143 76.2904C224.044 76.6695 224.067 76.944 224.213 77.1125C224.359 77.2815 224.612 77.4659 224.972 77.6649C225.26 77.8313 225.474 77.8617 225.614 77.7562C225.789 77.6156 225.999 77.423 226.244 77.1786C226.489 76.968 226.646 76.7935 226.714 76.655C226.783 76.5164 226.743 76.3115 226.595 76.0396ZM222.892 77.806C222.21 77.5783 221.731 77.6216 221.452 77.9355C221.173 78.2151 220.825 78.6504 220.409 79.2413C220.029 79.7971 219.753 80.2483 219.582 80.5948C219.41 80.9065 219.543 81.3332 219.981 81.874C220.384 82.45 220.781 82.7176 221.172 82.676C221.562 82.6344 222.094 82.5044 222.766 82.2861C223.297 82.1052 223.577 81.877 223.607 81.6017C223.673 81.2916 223.699 80.8624 223.689 80.3134C223.676 79.662 223.701 79.1294 223.764 78.7164C223.826 78.2691 223.536 77.9659 222.892 77.806ZM227.438 80.8624L227.113 80.6111L226.744 80.8752L226.915 81.4383L227.391 81.172L227.438 80.8624ZM237.874 81.9062C237.658 81.8075 237.497 81.793 237.392 81.8637C237.287 81.9345 237.128 82.04 236.918 82.1811C236.778 82.3209 236.674 82.4431 236.604 82.5473C236.535 82.6515 236.538 82.8059 236.614 83.0105C236.725 83.2485 236.836 83.435 236.945 83.5705C237.054 83.6713 237.25 83.7022 237.534 83.6627C237.819 83.6229 238.031 83.5675 238.172 83.4963C238.313 83.3908 238.397 83.1837 238.427 82.8741C238.493 82.6326 238.472 82.4615 238.363 82.3608C238.289 82.2248 238.126 82.0734 237.874 81.9062ZM218.301 83.3462C217.73 83.2879 217.358 83.3977 217.186 83.6756C217.049 83.9526 216.861 84.3335 216.621 84.818C216.417 85.3022 216.299 85.6817 216.269 85.9571C216.238 86.1976 216.404 86.4863 216.767 86.8229C217.165 87.1587 217.507 87.3071 217.791 87.2672C218.075 87.2277 218.446 87.0836 218.904 86.8353C219.291 86.6222 219.518 86.3949 219.585 86.1535C219.651 85.912 219.627 85.5865 219.512 85.177C219.394 84.6302 219.297 84.2031 219.219 83.8956C219.178 83.5873 218.871 83.4041 218.301 83.3462ZM234.597 83.6649C234.058 83.4346 233.628 83.254 233.305 83.1224C233.017 82.9907 232.664 83.1344 232.245 83.5538C231.792 84.0423 231.533 84.4591 231.468 84.803C231.404 85.1474 231.537 85.6084 231.869 86.1856C232.164 86.6608 232.47 86.8439 232.788 86.735C233.142 86.6256 233.621 86.5309 234.225 86.4511C234.721 86.3392 235.129 86.2461 235.448 86.1715C235.767 86.0969 235.957 85.8018 236.018 85.2859C236.079 84.77 235.983 84.4287 235.73 84.2618C235.478 84.095 235.1 83.896 234.597 83.6649ZM227.193 84.6757C226.975 84.4394 226.776 84.2889 226.597 84.2237C226.453 84.1576 226.24 84.1786 225.957 84.2867C225.674 84.3948 225.552 84.5341 225.591 84.7053C225.63 84.8759 225.652 85.0814 225.657 85.3215C225.663 85.6303 225.845 85.8327 226.203 85.9292C226.489 85.9927 226.704 86.0746 226.849 86.1749C227.029 86.2744 227.205 86.2024 227.379 85.9592C227.551 85.6813 227.618 85.457 227.579 85.2863C227.54 85.1157 227.411 84.912 227.193 84.6757ZM211.946 86.0879C211.69 85.7838 211.456 85.5994 211.241 85.5346C211.061 85.469 210.777 85.5085 210.388 85.653C210.034 85.7624 209.842 85.9206 209.81 86.1269C209.779 86.3336 209.766 86.6252 209.774 87.0026C209.779 87.2771 209.854 87.4645 209.999 87.5648C210.143 87.6647 210.358 87.7466 210.644 87.8101C210.931 87.9079 211.164 87.9551 211.342 87.9516C211.519 87.9143 211.676 87.7741 211.814 87.5314C212.022 87.2187 212.159 86.976 212.227 86.8032C212.294 86.596 212.2 86.3576 211.946 86.0879Z" fill="white"/>
<defs>
<linearGradient id="paint0_linear_3_18" x1="71.4941" y1="22.6553" x2="95.6279" y2="140.471" gradientUnits="userSpaceOnUse">
<stop stop-color="#0040FF"/>
<stop offset="1" stop-color="#6484E2"/>
</linearGradient>
<linearGradient id="paint1_linear_3_18" x1="373.3" y1="26.9438" x2="349.167" y2="144.76" gradientUnits="userSpaceOnUse">
<stop stop-color="#0040FF"/>
<stop offset="1" stop-color="#6484E2"/>
</linearGradient>
<linearGradient id="paint2_linear_3_18" x1="222.5" y1="21.4423" x2="222.5" y2="124.365" gradientUnits="userSpaceOnUse">
<stop stop-color="#0040FF"/>
<stop offset="1" stop-color="#6484E2"/>
</linearGradient>
</defs>
</svg>
